{"title":"The.Penguins.Of.Madagascar.All.Nighter.Before.XmaS.2011.AC3.DVDR","uid":6787146,"size":1484910152,"categoryP":"video","categoryS":"movies","magnet":"?xt=urn:btih:0b9551809df7837ab13ee6076a75d9ba187cfd93&amp;dn=The.Penguins.Of.Madagascar.All.Nighter.Before.XmaS.2011.AC3.DVDR&amp;tr=udp%3A%2F%2Ftracker.openbittorrent.com%3A80&amp;tr=udp%3A%2F%2Fopen.demonii.com%3A1337&amp;tr=udp%3A%2F%2Ftracker.coppersurfer.tk%3A6969&amp;tr=udp%3A%2F%2Fexodus.desync.com%3A6969","seeders":19,"leechers":2,"uploader":"SAFCukO09","files":5,"time":1320134082,"description":"General Information\n\nSample Included......: Yes\n\nSource...............: NORDIC.PAL.DVDR-WILDER\n\nContainer............: AVI\n\nLength...............:1h 41mn\n\nSize.................:1.37 GiB\n\nTotal Bitrate........: 1 667 Kbps\n\nIMDb Information.....: http://www.amazon.co.uk/Penguins-Madagascar-Nighter-Before-Xmas/dp/B005DS0X8I\n\nGenre................: Animation/Family\n\n\nVideo\nID : 0\nFormat : MPEG-4 Visual\nFormat profile : Advanced Simple@L5\nFormat settings, BVOP : 2\nFormat settings, QPel : No\nFormat settings, GMC : No warppoints\nFormat settings, Matrix : Default (H.263)\nCodec ID : XVID\nCodec ID/Hint : XviD\nDuration : 1h 41mn\nBit rate : 1 667 Kbps\nWidth : 720 pixels\nHeight : 400 pixels\nDisplay aspect ratio : 16:9\nFrame rate : 25.000 fps\nColor space : YUV\nChroma subsampling : 4:2:0\nBit depth : 8 bits\nScan type : Progressive\nCompression mode : Lossy\nBits/(Pixel*Frame) : 0.231\nStream size : 1.18 GiB (86%)\nWriting library : XviD 1.2.1 (UTC 2008-12-04)\n\nAudio\nID : 1\nFormat : AC-3\nFormat/Info : Audio Coding 3\nMode extension : CM (complete main)\nCodec ID : 2000\nDuration : 1h 41mn\nBit rate mode : Constant\nBit rate : 256 Kbps\nChannel(s) : 6 channels\nChannel positions : Front: L C R, Side: L R, LFE\nSampling rate : 48.0 KHz\nBit depth : 16 bits\nCompression mode : Lossy\nDelay relative to video : 940ms\nStream size : 186 MiB (13%)\nAlignment : Split accross interleaves\nInterleave, duration : 40 ms (1.00 video frame)\nInterleave, preload duration : 500 ms\n\nReleasers Notes:\n\n\nEnjoy with your kids or fire it on to keep em quiet lol!!","torrent":{"xt":"urn:btih:0b9551809df7837ab13ee6076a75d9ba187cfd93","amp;dn":"The.Penguins.Of.Madagascar.All.Nighter.Before.XmaS.2011.AC3.DVDR","amp;tr":["udp%3A%2F%2Ftracker.openbittorrent.com%3A80","udp%3A%2F%2Fopen.demonii.com%3A1337","udp%3A%2F%2Ftracker.coppersurfer.tk%3A6969","udp%3A%2F%2Fexodus.desync.com%3A6969"],"infoHash":"0b9551809df7837ab13ee6076a75d9ba187cfd93","infoHashBuffer":{"type":"Buffer","data":[11,149,81,128,157,247,131,122,177,62,230,7,106,117,217,186,24,124,253,147]},"announce":[],"urlList":[]}}